<?xml version="1.0" standalone="no"?><!DOCTYPE svg PUBLIC "-//W3C//DTD SVG 1.1//EN" "http://www.w3.org/Graphics/SVG/1.1/DTD/svg11.dtd"><svg t="1688800435635" class="icon" viewBox="0 0 1024 1024" version="1.1" xmlns="http://www.w3.org/2000/svg" p-id="1432" xmlns:xlink="http://www.w3.org/1999/xlink" width="200" height="200"><path d="M470.73 683.4m54.08 0l0 0q54.08 0 54.08 54.08l0 124.44q0 54.08-54.08 54.08l0 0q-54.08 0-54.08-54.08l0-124.44q0-54.08 54.08-54.08Z" fill="#FFB05A" p-id="1433"></path><path d="M498 862.19V737.75a54.1 54.1 0 0 1 40.58-52.38 54.16 54.16 0 0 0-13.5-1.7A54.08 54.08 0 0 0 471 737.75v124.44a54.08 54.08 0 0 0 54.08 54.08 54.16 54.16 0 0 0 13.5-1.7A54.09 54.09 0 0 1 498 862.19z" fill="#EF9529" p-id="1434"></path><path d="M709.38 749.86s-42.69 25-184.57 25c-129.1 0-185.74-25-185.74-25-27.09-11-48.61-33.39-48.61-60.24V354.68c0-128 103.72-231.68 231.67-231.68a48.61 48.61 0 0 1 48.61 48.61 131.8 131.8 0 0 0 128.12 131.75l11.88 0.33A48.6 48.6 0 0 1 758 352.28v337.34c0 26.85-19.2 46.87-48.62 60.24z" fill="#FF72B4" p-id="1435"></path><path d="M470.15 575.41m-30.82 0a30.82 30.82 0 1 0 61.64 0 30.82 30.82 0 1 0-61.64 0Z" fill="#FEC1DC" p-id="1436"></path><path d="M377.61 749.4C350.52 738.35 329 716 329 689.16V354.21c0-118.89 89.56-216.84 204.89-230.12a48.64 48.64 0 0 0-12.21-1.55c-128 0-231.68 103.72-231.68 231.67v335c0 26.85 21.52 49.19 48.61 60.24 0 0 56.64 25 185.74 25 7 0 13.8-0.07 20.35-0.18C428.79 772 377.61 749.4 377.61 749.4z" fill="#FF52A9" p-id="1437"></path><path d="M290.46 399.29V355.1c0-128 103.72-231.68 231.67-231.68A48.61 48.61 0 0 1 570.75 172a131.8 131.8 0 0 0 128.11 131.78l11.88 0.33A48.6 48.6 0 0 1 758 352.7v46.59c0 3.7 0 37.14-24.42 40.63-54.66 0-25.59-62.8-57-61.64-50 0-4.65 86.06-61.64 86.06-36.05 0-23.26-66.29-57-66.29-73.27 0-16.28 118.63-87.22 118.63-67.46 0-17.45-143-76.76-143-41.87 0-24.43 70.94-68.62 70.94-27.9-0.05-34.88-33.17-34.88-45.33z" fill="#FEC1DC" p-id="1438"></path><path d="M327 397.79V353.6c0-119.36 90.26-217.6 206.24-230.28a48.47 48.47 0 0 0-11.56-1.4C393.72 121.92 290 225.65 290 353.6v44.19c0 12.16 7 45.29 34.89 45.29 8 0 14-2.36 18.71-6.19-12.87-10.18-16.6-30.22-16.6-39.1z" fill="#FFB0D6" p-id="1439"></path></svg>